<svg width="20" height="20" fill="none" xmlns="http://www.w3.org/2000/svg"><path fill-rule="evenodd" clip-rule="evenodd" d="M16.627 3.522h2.89c.267 0 .483.225.483.503a.493.493 0 0 1-.482.503h-2.891v3.02a.493.493 0 0 1-.482.502.493.493 0 0 1-.482-.503V4.528h-2.891a.493.493 0 0 1-.482-.503c0-.278.216-.503.482-.503h2.89V.503c0-.278.217-.503.483-.503s.482.225.482.503v3.019zM3.218 7.352c.19.509.637 1.66.976 2.19l.038.062c.275.438.786 1.253 2.395 1.253 1.607 0 2.12-.815 2.394-1.252l.039-.062c.339-.53.786-1.682.976-2.19a.93.93 0 0 0 .527-.848v-.849a.938.938 0 0 0-.406-.779v-.282c0-2.042-1.32-3.262-3.53-3.262s-3.53 1.22-3.53 3.262v.287a.947.947 0 0 0-.407.774v.85a.93.93 0 0 0 .528.847zm.436-1.623a.497.497 0 0 0 .407-.497v-.637c0-1.476.887-2.256 2.566-2.256 1.679 0 2.566.78 2.566 2.256v.637c0 .25.176.46.407.497v.703a.488.488 0 0 0-.376.32c-.164.458-.658 1.75-.966 2.232l-.043.068c-.223.356-.501.799-1.588.799-1.088 0-1.366-.443-1.589-.799l-.043-.068c-.307-.482-.801-1.775-.966-2.232a.487.487 0 0 0-.376-.32v-.703zm-2.222 6.11h10.39c.459 0 .872.189 1.135.519.253.319.35.738.27 1.18-.11.614-.661 1.182-.99 1.522l-.074.077-4.035 4.212a2.084 2.084 0 0 1-1.39.646.481.481 0 0 1-.06.005h-.091a2.083 2.083 0 0 1-1.461-.65l-4.109-4.29c-.329-.34-.88-.908-.99-1.522-.08-.442.017-.861.27-1.18.263-.33.676-.52 1.135-.52zm10.847 1.514c-.055.305-.504.769-.72.991l-4.112 4.293a1.14 1.14 0 0 1-.792.354h-.002l-.018.001H6.62a1.14 1.14 0 0 1-.813-.355l-4.035-4.212-.077-.08-.001-.001c-.216-.223-.665-.686-.72-.99-.018-.102-.021-.245.065-.353.079-.1.222-.156.393-.156h10.39c.17 0 .314.057.393.156.086.108.082.25.064.352z" fill="#fff"/></svg>